<?xml version="1.0" encoding="UTF-8" standalone="no"?>
<!-- Created with Inkscape (http://www.inkscape.org/) -->

<svg
   xmlns:dc="http://purl.org/dc/elements/1.1/"
   xmlns:cc="http://creativecommons.org/ns#"
   xmlns:rdf="http://www.w3.org/1999/02/22-rdf-syntax-ns#"
   xmlns:svg="http://www.w3.org/2000/svg"
   xmlns="http://www.w3.org/2000/svg"
   xmlns:sodipodi="http://sodipodi.sourceforge.net/DTD/sodipodi-0.dtd"
   xmlns:inkscape="http://www.inkscape.org/namespaces/inkscape"
   width="392.05731"
   height="409.27466"
   viewBox="0 0 103.73183 108.28726"
   version="1.1"
   id="svg8"
   inkscape:version="0.92.0 r15299"
   sodipodi:docname="github-thiblizz-modded-bios.svg">
  <title
     id="title4520">Thiblizz's L502X Modded BIOS</title>
  <defs
     id="defs2" />
  <sodipodi:namedview
     id="base"
     pagecolor="#ffffff"
     bordercolor="#666666"
     borderopacity="1.0"
     inkscape:pageopacity="0.0"
     inkscape:pageshadow="2"
     inkscape:zoom="1.4650957"
     inkscape:cx="123.68077"
     inkscape:cy="219.20305"
     inkscape:document-units="mm"
     inkscape:current-layer="#454d4cff-4"
     showgrid="true"
     showguides="false"
     units="px"
     fit-margin-top="0"
     fit-margin-left="0"
     fit-margin-right="0"
     fit-margin-bottom="0"
     inkscape:window-width="1920"
     inkscape:window-height="1017"
     inkscape:window-x="-8"
     inkscape:window-y="-8"
     inkscape:window-maximized="1"
     inkscape:measure-start="671.612,-985.927"
     inkscape:measure-end="369.612,214.073">
    <sodipodi:guide
       position="-55.135993,-91.526426"
       orientation="0,793.70079"
       id="guide7406"
       inkscape:locked="false" />
    <sodipodi:guide
       position="154.86401,-91.526426"
       orientation="-1122.5197,0"
       id="guide7408"
       inkscape:locked="false" />
    <sodipodi:guide
       position="154.86401,205.47358"
       orientation="0,-793.70079"
       id="guide7410"
       inkscape:locked="false" />
    <sodipodi:guide
       position="-55.135993,205.47358"
       orientation="1122.5197,0"
       id="guide7412"
       inkscape:locked="false" />
    <inkscape:grid
       type="xygrid"
       id="grid7414"
       originx="-55.135989"
       originy="-91.526439" />
  </sodipodi:namedview>
  <metadata
     id="metadata5">
    <rdf:RDF>
      <cc:Work
         rdf:about="">
        <dc:format>image/svg+xml</dc:format>
        <dc:type
           rdf:resource="http://purl.org/dc/dcmitype/StillImage" />
        <dc:title>Thiblizz's L502X Modded BIOS</dc:title>
        <dc:creator>
          <cc:Agent>
            <dc:title>Thiblizz</dc:title>
          </cc:Agent>
        </dc:creator>
        <dc:description>Thiblizz's L502X Modded BIOS official logo. (GitHub version)</dc:description>
        <cc:license
           rdf:resource="http://creativecommons.org/licenses/by-sa/4.0/" />
      </cc:Work>
      <cc:License
         rdf:about="http://creativecommons.org/licenses/by-sa/4.0/">
        <cc:permits
           rdf:resource="http://creativecommons.org/ns#Reproduction" />
        <cc:permits
           rdf:resource="http://creativecommons.org/ns#Distribution" />
        <cc:requires
           rdf:resource="http://creativecommons.org/ns#Notice" />
        <cc:requires
           rdf:resource="http://creativecommons.org/ns#Attribution" />
        <cc:permits
           rdf:resource="http://creativecommons.org/ns#DerivativeWorks" />
        <cc:requires
           rdf:resource="http://creativecommons.org/ns#ShareAlike" />
      </cc:License>
    </rdf:RDF>
  </metadata>
  <g
     inkscape:label="Layer 1"
     inkscape:groupmode="layer"
     id="layer1"
     transform="translate(-55.135992,-97.186316)">
    <g
       transform="matrix(0.35277777,0,0,-0.35277777,-42.210561,316.20378)"
       inkscape:label="ink_ext_XXXXXX"
       id="g4493">
      <g
         transform="scale(0.1)"
         id="g4495">
        <path
           inkscape:connector-curvature="0"
           id="path4497"
           style="fill:#231f20;fill-opacity:1;fill-rule:nonzero;stroke:none"
           d="m 5699.8599,5290.4692 v -1233.76 c 0,-160.78 -131.55,-292.33 -292.33,-292.33 h -2355.77 c -160.78,0 -292.33,131.55 -292.33,292.33 v 1233.76 c 0,160.78 131.55,292.33 292.33,292.33 h 2355.77 c 160.78,0 292.33,-131.55 292.33,-292.33" />
        <path
           inkscape:connector-curvature="0"
           id="path4499"
           style="fill:none;stroke:#ffffff;stroke-width:40;stroke-linecap:butt;stroke-linejoin:miter;stroke-miterlimit:10;stroke-dasharray:none;stroke-opacity:1"
           d="m 5510.7099,4056.7092 c 0,-55.93 -47.25,-103.17 -103.18,-103.17 h -2355.77 c -55.93,0 -103.17,47.24 -103.17,103.17 v 1233.76 c 0,55.93 47.24,103.17 103.17,103.17 h 2355.77 c 55.93,0 103.18,-47.24 103.18,-103.17 z" />
        <path
           inkscape:connector-curvature="0"
           id="path4501"
           style="fill:#231f20;fill-opacity:1;fill-rule:nonzero;stroke:none"
           d="m 3251.9599,3854.6092 v -257.95 c 0,-47.48 -38.5,-85.98 -85.98,-85.98 h -68.79 c -47.49,0 -85.98,38.5 -85.98,85.98 v 257.95 h 240.75" />
        <path
           inkscape:connector-curvature="0"
           id="path4503"
           style="fill:#231f20;fill-opacity:1;fill-rule:nonzero;stroke:none"
           d="m 3189.6199,3852.8192 v -684.27 c 0,-16.43 -13.31,-29.74 -29.74,-29.74 h -56.6 c -16.42,0 -29.74,13.31 -29.74,29.74 v 684.27 c 0,16.42 13.32,29.74 29.74,29.74 h 56.6 c 16.43,0 29.74,-13.32 29.74,-29.74" />
        <path
           inkscape:connector-curvature="0"
           id="path4505"
           style="fill:#231f20;fill-opacity:1;fill-rule:nonzero;stroke:none"
           d="m 3691.1799,3854.6092 v -257.95 c 0,-47.48 -38.49,-85.98 -85.98,-85.98 h -68.79 c -47.48,0 -85.98,38.5 -85.98,85.98 v 257.95 h 240.75" />
        <path
           inkscape:connector-curvature="0"
           id="path4507"
           style="fill:#231f20;fill-opacity:1;fill-rule:nonzero;stroke:none"
           d="m 3628.8499,3852.8192 v -684.27 c 0,-16.43 -13.32,-29.74 -29.74,-29.74 h -56.6 c -16.43,0 -29.74,13.31 -29.74,29.74 v 684.27 c 0,16.42 13.31,29.74 29.74,29.74 h 56.6 c 16.42,0 29.74,-13.32 29.74,-29.74" />
        <path
           inkscape:connector-curvature="0"
           id="path4509"
           style="fill:#231f20;fill-opacity:1;fill-rule:nonzero;stroke:none"
           d="m 4130.4099,3854.6092 v -257.95 c 0,-47.48 -38.5,-85.98 -85.98,-85.98 h -68.79 c -47.49,0 -85.98,38.5 -85.98,85.98 v 257.95 h 240.75" />
        <path
           inkscape:connector-curvature="0"
           id="path4511"
           style="fill:#231f20;fill-opacity:1;fill-rule:nonzero;stroke:none"
           d="m 4068.0699,3852.8192 v -684.27 c 0,-16.43 -13.31,-29.74 -29.73,-29.74 h -56.61 c -16.42,0 -29.73,13.31 -29.73,29.74 v 684.27 c 0,16.42 13.31,29.74 29.73,29.74 h 56.61 c 16.42,0 29.73,-13.32 29.73,-29.74" />
        <path
           inkscape:connector-curvature="0"
           id="path4513"
           style="fill:#231f20;fill-opacity:1;fill-rule:nonzero;stroke:none"
           d="m 4569.6299,3854.6092 v -257.95 c 0,-47.48 -38.49,-85.98 -85.98,-85.98 h -68.79 c -47.48,0 -85.98,38.5 -85.98,85.98 v 257.95 h 240.75" />
        <path
           inkscape:connector-curvature="0"
           id="path4515"
           style="fill:#231f20;fill-opacity:1;fill-rule:nonzero;stroke:none"
           d="m 4507.2999,3852.8192 v -684.27 c 0,-16.43 -13.32,-29.74 -29.74,-29.74 h -56.61 c -16.42,0 -29.73,13.31 -29.73,29.74 v 684.27 c 0,16.42 13.31,29.74 29.73,29.74 h 56.61 c 16.42,0 29.74,-13.32 29.74,-29.74" />
        <path
           inkscape:connector-curvature="0"
           id="path4517"
           style="fill:#231f20;fill-opacity:1;fill-rule:nonzero;stroke:none"
           d="m 5008.8599,3854.6092 v -257.95 c 0,-47.48 -38.5,-85.98 -85.98,-85.98 h -68.79 c -47.49,0 -85.98,38.5 -85.98,85.98 v 257.95 h 240.75" />
        <path
           inkscape:connector-curvature="0"
           id="path4519"
           style="fill:#231f20;fill-opacity:1;fill-rule:nonzero;stroke:none"
           d="m 4946.5199,3852.8192 v -684.27 c 0,-16.43 -13.31,-29.74 -29.74,-29.74 h -56.6 c -16.42,0 -29.73,13.31 -29.73,29.74 v 684.27 c 0,16.42 13.31,29.74 29.73,29.74 h 56.6 c 16.43,0 29.74,-13.32 29.74,-29.74" />
        <path
           inkscape:connector-curvature="0"
           id="path4521"
           style="fill:#231f20;fill-opacity:1;fill-rule:nonzero;stroke:none"
           d="m 5448.0799,3854.6092 v -257.95 c 0,-47.48 -38.49,-85.98 -85.98,-85.98 h -68.79 c -47.48,0 -85.98,38.5 -85.98,85.98 v 257.95 h 240.75" />
        <path
           inkscape:connector-curvature="0"
           id="path4523"
           style="fill:#231f20;fill-opacity:1;fill-rule:nonzero;stroke:none"
           d="m 5385.7499,3852.8192 v -684.27 c 0,-16.43 -13.32,-29.74 -29.74,-29.74 h -56.6 c -16.43,0 -29.74,13.31 -29.74,29.74 v 684.27 c 0,16.42 13.31,29.74 29.74,29.74 h 56.6 c 16.42,0 29.74,-13.32 29.74,-29.74" />
        <path
           inkscape:connector-curvature="0"
           id="path4525"
           style="fill:#231f20;fill-opacity:1;fill-rule:nonzero;stroke:none"
           d="m 3251.9599,5492.5692 v 257.95 c 0,47.48 -38.5,85.98 -85.98,85.98 h -68.79 c -47.49,0 -85.98,-38.5 -85.98,-85.98 v -257.95 h 240.75" />
        <path
           inkscape:connector-curvature="0"
           id="path4527"
           style="fill:#231f20;fill-opacity:1;fill-rule:nonzero;stroke:none"
           d="m 3189.6199,5494.3592 v 684.27 c 0,16.43 -13.31,29.74 -29.74,29.74 h -56.6 c -16.42,0 -29.74,-13.31 -29.74,-29.74 v -684.27 c 0,-16.42 13.32,-29.74 29.74,-29.74 h 56.6 c 16.43,0 29.74,13.32 29.74,29.74" />
        <path
           inkscape:connector-curvature="0"
           id="path4529"
           style="fill:#231f20;fill-opacity:1;fill-rule:nonzero;stroke:none"
           d="m 3691.1799,5492.5692 v 257.95 c 0,47.48 -38.49,85.98 -85.98,85.98 h -68.79 c -47.48,0 -85.98,-38.5 -85.98,-85.98 v -257.95 h 240.75" />
        <path
           inkscape:connector-curvature="0"
           id="path4531"
           style="fill:#231f20;fill-opacity:1;fill-rule:nonzero;stroke:none"
           d="m 3628.8499,5494.3592 v 684.27 c 0,16.43 -13.32,29.74 -29.74,29.74 h -56.6 c -16.43,0 -29.74,-13.31 -29.74,-29.74 v -684.27 c 0,-16.42 13.31,-29.74 29.74,-29.74 h 56.6 c 16.42,0 29.74,13.32 29.74,29.74" />
        <path
           inkscape:connector-curvature="0"
           id="path4533"
           style="fill:#231f20;fill-opacity:1;fill-rule:nonzero;stroke:none"
           d="m 4130.4099,5492.5692 v 257.95 c 0,47.48 -38.5,85.98 -85.98,85.98 h -68.79 c -47.49,0 -85.98,-38.5 -85.98,-85.98 v -257.95 h 240.75" />
        <path
           inkscape:connector-curvature="0"
           id="path4535"
           style="fill:#231f20;fill-opacity:1;fill-rule:nonzero;stroke:none"
           d="m 4068.0699,5494.3592 v 684.27 c 0,16.43 -13.31,29.74 -29.73,29.74 h -56.61 c -16.42,0 -29.73,-13.31 -29.73,-29.74 v -684.27 c 0,-16.42 13.31,-29.74 29.73,-29.74 h 56.61 c 16.42,0 29.73,13.32 29.73,29.74" />
        <path
           inkscape:connector-curvature="0"
           id="path4537"
           style="fill:#231f20;fill-opacity:1;fill-rule:nonzero;stroke:none"
           d="m 4569.6299,5492.5692 v 257.95 c 0,47.48 -38.49,85.98 -85.98,85.98 h -68.79 c -47.48,0 -85.98,-38.5 -85.98,-85.98 v -257.95 h 240.75" />
        <path
           inkscape:connector-curvature="0"
           id="path4539"
           style="fill:#231f20;fill-opacity:1;fill-rule:nonzero;stroke:none"
           d="m 4507.2999,5494.3592 v 684.27 c 0,16.43 -13.32,29.74 -29.74,29.74 h -56.61 c -16.42,0 -29.73,-13.31 -29.73,-29.74 v -684.27 c 0,-16.42 13.31,-29.74 29.73,-29.74 h 56.61 c 16.42,0 29.74,13.32 29.74,29.74" />
        <path
           inkscape:connector-curvature="0"
           id="path4541"
           style="fill:#231f20;fill-opacity:1;fill-rule:nonzero;stroke:none"
           d="m 5008.8599,5492.5692 v 257.95 c 0,47.48 -38.5,85.98 -85.98,85.98 h -68.79 c -47.49,0 -85.98,-38.5 -85.98,-85.98 v -257.95 h 240.75" />
        <path
           inkscape:connector-curvature="0"
           id="path4543"
           style="fill:#231f20;fill-opacity:1;fill-rule:nonzero;stroke:none"
           d="m 4946.5199,5494.3592 v 684.27 c 0,16.43 -13.31,29.74 -29.74,29.74 h -56.6 c -16.42,0 -29.73,-13.31 -29.73,-29.74 v -684.27 c 0,-16.42 13.31,-29.74 29.73,-29.74 h 56.6 c 16.43,0 29.74,13.32 29.74,29.74" />
        <path
           inkscape:connector-curvature="0"
           id="path4545"
           style="fill:#231f20;fill-opacity:1;fill-rule:nonzero;stroke:none"
           d="m 5448.0799,5492.5692 v 257.95 c 0,47.48 -38.49,85.98 -85.98,85.98 h -68.79 c -47.48,0 -85.98,-38.5 -85.98,-85.98 v -257.95 h 240.75" />
        <path
           inkscape:connector-curvature="0"
           id="path4547"
           style="fill:#231f20;fill-opacity:1;fill-rule:nonzero;stroke:none"
           d="m 5385.7499,5494.3592 v 684.27 c 0,16.43 -13.32,29.74 -29.74,29.74 h -56.6 c -16.43,0 -29.74,-13.31 -29.74,-29.74 v -684.27 c 0,-16.42 13.31,-29.74 29.74,-29.74 h 56.6 c 16.42,0 29.74,13.32 29.74,29.74" />
        <g
           transform="matrix(10,0,0,10,2759.4299,812.08908)"
           inkscape:label="f.society_LOGO_WHITE"
           id="g5770" />
        <g
           transform="matrix(10,0,0,10,2759.4299,812.08908)"
           inkscape:label="f.society_LOGO_WHITE"
           id="g7128" />
        <rect
           style="fill:none;fill-opacity:1;stroke:none;stroke-width:10.00000095"
           id="rect2825"
           width="10820.241"
           height="8380.7207"
           x="-899.08069"
           y="-7892.6289"
           transform="scale(1,-1)" />
        <g
           id="g2830"
           transform="matrix(10.000001,0,0,-10.000001,-1326.0806,8511.7593)"
           style="fill:none">
          <g
             style="fill:none;fill-opacity:1"
             id="#454d4cff">
            <path
               style="fill:none;fill-opacity:1"
               sodipodi:nodetypes="ccccccccccccccccccccccccccccccccccccccccccccccccccccccccccccccccccc"
               id="path5"
               d="M 42.7,63.67 C 63.03,61.12 83.57,62.15 104,62 c 74.77,-0.66 149.65,2.54 223.95,11.11 15.64,1.88 31.33,3.46 46.8,6.44 16.17,3.59 32.69,5.25 48.87,8.83 37.23,6.89 74.07,16.04 110.05,27.91 9.97,2.16 18.9,7.16 28.45,10.56 20.43,8.17 40.32,17.87 58.68,30.05 -4.17,29.2 -6.17,61.16 8.24,88.07 7.89,15.78 21.41,28.74 37.91,35.17 23.92,10.31 50.64,6.9 75.91,8.17 22.94,4.15 44.43,13.54 66.14,21.7 8.62,3.35 17.09,7.07 25.73,10.38 0.11,-2.83 0.24,-5.64 0.38,-8.46 9.71,11.39 22.68,19.74 36.5,25.28 -0.78,-4.81 -1.7,-9.59 -2.58,-14.38 6.72,6.31 13.02,13.06 19.86,19.25 6.26,5.13 13.22,9.35 20.24,13.37 -0.02,-6.63 -1.21,-13.14 -2.09,-19.68 10.48,11.9 21.89,22.95 32.16,35.06 8.17,0.13 16.34,0.23 24.54,0.37 7.04,12.12 15.04,23.64 22.89,35.25 1.87038,3.18808 3.14803,5.3123 4.51844,8.97307 1.93355,4.30467 -7.46662,1.80074 -5.22844,4.55693 14.19,17.72 35.48,28.04 57.12,33.44 -8.33,4.16 -18.1,5.51 -24.62,12.35 -12.17,13.44 11.54,-18.4 -4.95,8.05 -8.63,-7.8 -16.13,-16.78 -25.2,-24.1 -12.25,-9.98 -25.91,-18.16 -40.31,-24.62 -7.56,-3.51 -16.07,-7.26 -20.03,-15.05 -2.95,-7.62 -3.6,-15.88 -4.33,-23.93 -27.86,-13.62 -56.85,-24.74 -85.7,-36.02 -35.26,-12.91 -71.17,-26.12 -108.94,-28.82 -36.56,-3.56 -73.76,11.33 -99.28,37.4 -31.44,31.15 -44.82,79.63 -32.76,122.35 9.33,39.33 39.35,72.96 77.4,86.63 16.48,6.15 34.15,8.45 51.67,8.35 72.5,-0.04 145.58,8.68 214.65,31.36 37.63,12.62 74.02,30.04 105.29,54.72 13.55,11.36 27.35,22.64 38.21,36.75 18.37,23.28 33.03,50.19 38.84,79.47 -6.6,-12.64 -11.38,-26.2 -18.94,-38.33 -14.58,-25.11 -34.37,-46.92 -56.86,-65.14 -22.77,-16.4 -48.14,-28.92 -74.52,-38.36 -24.65,-8.61 -49.92,-16.14 -75.88,-19.48 34.05,17.49 63.83,42.6 88.24,71.98 16.72,18.31 29.97,39.43 42.06,60.99 10.24,17.96 18.44,36.99 25.69,56.33 2.37,6.54 4.98,13.18 4.98,20.27 -3.16,-5.31 -5.2,-11.16 -7.48,-16.87 -15.56,-37.86 -35.93,-74.08 -63.04,-104.91 -19.95,-25.64 -46.37,-45.5 -74.32,-61.66 -53.23,-30.44 -116.37,-40.15 -176.96,-35.28 -50.28,5.8 -101.86,-16.08 -135,-53.83 -16.52,-18.5 -28.68,-40.78 -35.49,-64.61 -6.27,-26.63 -7.8,-54.86 -0.55,-81.47 5.94,-26.01 19.85,-49.7 37.69,-69.34 12.53,-13.28 26.84,-25.21 43.41,-33.11 -15.57,-26.34 -26.55,-55.13 -35.2,-84.41 -4.6,-15.64 -6.6,-31.89 -10.38,-47.72 -0.53,-2.59 -3.49,-3.19 -5.37,-4.45 -14.55,-7.29 -29.19,-14.45 -44.17,-20.82 -10.02,-4.56 -20.93,-6.53 -31.02,-10.92 -16.5,-4.87 -32.78,-10.48 -49.47,-14.71 -9.99,-2.57 -19.36,-7.03 -29.41,-9.4 C 420.23,107.78 399.64,101.39 378.35,98.61 268.12,74.9 155.26,65.7 42.7,63.67"
               inkscape:connector-curvature="0" />
            <path
               style="fill:none;fill-opacity:1"
               id="path7"
               d="m 186.99,205.92 c 134.72,-21.78 271.49,-28.02 407.81,-26.87 1.55,8.41 3.49,16.75 5.38,25.09 -56.53,-5.67 -113.4,-7.48 -170.19,-7.1 -116.58,2.58 -232.88,13.53 -348.32,29.76 34.52,-9.56 70.03,-14.97 105.32,-20.88 z"
               inkscape:connector-curvature="0" />
            <path
               style="fill:none;fill-opacity:1"
               id="path9"
               d="m 378.71,265.6 c 73.01,-24.17 148.27,-42.41 224.96,-49.62 1.7,8.11 4.08,16.05 6.56,23.96 -129.32,6.62 -255.85,40.98 -375.23,90.08 -18.36,7.27 -36.04,16.11 -54.18,23.89 16.08,-10.12 33.22,-18.4 50.17,-26.92 47.73,-23.88 97.25,-44.08 147.72,-61.39 z"
               inkscape:connector-curvature="0" />
            <path
               style="fill:none;fill-opacity:1"
               id="path11"
               d="m 755.74,241.16 c 31.81,7.71 62.12,20.88 91.11,35.93 34.4,17.99 66.23,40.91 93.95,68.11 5.48,5.74 12.52,10.32 16.38,17.44 -3.43,-0.53 -7.84,1.7 -10.51,-1.22 -10.15,-12.76 -21.89,-24.24 -34.44,-34.65 -34.7,-28.54 -74.12,-50.9 -115.2,-68.86 -13.45,-6.34 -27.75,-10.66 -41.29,-16.75 z"
               inkscape:connector-curvature="0" />
          </g>
          <g
             transform="translate(0.64999998,1)"
             id="#ffcb17ff"
             style="fill:none">
            <path
               style="fill:none"
               sodipodi:nodetypes="csccc"
               id="path14"
               d="m 965.06,395.8 c 18.51069,19.28613 -0.54574,-0.7076 16.92779,17.62337 0.48602,0.50987 0.32872,0.16531 -0.33779,1.80663 -5.62,-2.24 -11.06,-4.9 -16.54,-7.4 -0.04,-4.02 -0.06,-8.03 -0.05,-12.03 z"
               inkscape:connector-curvature="0" />
          </g>
          <g
             style="fill:none;fill-opacity:1"
             transform="translate(769.675,566.985)"
             id="#454d4cff-6">
            <path
               sodipodi:nodetypes="cccccccccccccccccccccc"
               style="fill:none;fill-opacity:1"
               d="M -0.42426407,10.395685 C 32.265736,12.555685 65.39,15.14 97.57,21.44 c 18.28,3.7 36.44,8.01 54.6,12.24 23.98,8.1 47.79,16.87 70.9,27.22 47.69,22.75 90.15,58.9 114.84,106.15 8.03,16.5 15.4,33.81 17.14,52.28 -4.99,-10.62 -8.69,-21.82 -14.19,-32.21 -7.92,-15.18 -16.74,-30.04 -27.82,-43.14 C 279.81,103.12 231.03,78.48 181.41,63.54 164.63,58.95 147.98,53.6 130.7,51.18 c 16.19,8.57 31.67,18.57 45.65,30.45 5.76,4.89 11.18,10.19 16.95,15.07 6.69,5.65 11.85,12.81 17.82,19.18 15.81,17.33 28.92,36.9 41.07,56.91 16.31,26.78 28.15,55.99 38.5,85.5 8.43,24.16 12.83,49.44 16.33,74.71 h -1.03 C 298.23,297.15 288.06,261.6 272.83,228.15 256.27,190.01 233.2,154.63 204.5,124.51 178.07,97.9 146.61,76.17 111.76,62.14 76.85,46.15 37.637158,41.00863 -0.28284271,38.97863 Z"
               id="path2918"
               inkscape:connector-curvature="0" />
          </g>
        </g>
        <g
           transform="matrix(8.573751,0,0,-8.573751,-2202.7043,8456.1922)"
           style="fill:#008080;fill-opacity:1"
           id="#454d4cff-4">
          <g
             transform="matrix(0.15,0,0,0.15,393.30051,351.18149)"
             style="fill:#008080;fill-opacity:1"
             id="#454d4cff-5" />
          <g
             style="fill:#008080;fill-opacity:1"
             transform="matrix(0.15,0,0,0.15,508.75175,436.22924)"
             id="#454d4cff-6-5" />
          <path
             style="fill:#ffffff;fill-opacity:1;stroke-width:0.55866969"
             d="m 746.76479,510.97031 c -18.09176,-1.08219 -34.15388,-8.36523 -46.5653,-21.11408 -10.77108,-11.06394 -17.2733,-24.45891 -19.3295,-39.81988 -0.62167,-4.64416 -0.62167,-13.1319 0,-17.77606 2.0562,-15.36098 8.55842,-28.75594 19.3295,-39.81987 11.07654,-11.3777 25.2481,-18.47968 41.14575,-20.61989 4.65598,-0.6268 13.13149,-0.6268 17.78748,0 20.57099,2.76936 38.54039,14.09946 49.82199,31.41387 5.65729,8.6825 9.23895,18.44214 10.65208,29.02589 0.55772,4.17707 0.62632,12.78683 0.13384,16.80412 -2.58175,21.06021 -13.80566,39.11082 -31.56341,50.76101 -8.289,5.43808 -18.83291,9.31995 -28.76635,10.59064 -3.40177,0.43515 -9.88596,0.71934 -12.64608,0.55425 z m 17.09179,-9.82605 c 3.29843,-0.73426 7.31311,-2.03203 10.56281,-3.41453 2.63591,-1.12141 8.44822,-4.21806 9.6879,-5.16149 l 0.65496,-0.49846 -0.69168,-1.64298 c -0.38043,-0.90371 -1.20616,-2.77938 -1.83502,-4.16816 -1.30558,-2.88349 -1.79236,-5.00804 -1.53735,-6.71031 0.0973,-0.64929 0.21961,-1.18047 0.27191,-1.18047 0.0523,0 0.54158,0.3028 1.08729,0.67285 3.33492,2.26173 10.15635,1.34545 15.09023,-2.02703 3.38764,-2.31549 7.28685,-6.9956 9.51336,-11.41862 1.93941,-3.85261 3.90068,-10.9722 4.74505,-17.22504 0.47557,-3.52127 0.40187,-11.50209 -0.14231,-15.41556 -1.87588,-13.49064 -7.86698,-25.59833 -17.38882,-35.14213 -9.97392,-9.99688 -21.92912,-15.83889 -36.40959,-17.7919 -1.29936,-0.17522 -4.55121,-0.31862 -7.22633,-0.31862 -2.67514,0 -5.92698,0.1434 -7.22635,0.31862 -13.62635,1.83781 -25.51373,7.38114 -34.88095,16.26568 -2.12476,2.01529 -2.05576,2.03029 0.83382,0.18137 13.1921,-8.44114 25.35917,-12.37595 35.35537,-11.43389 8.09953,0.76334 14.4693,4.31666 19.68121,10.97911 3.17407,4.05744 3.53478,5.22113 4.15227,13.39537 0.22817,3.02069 0.60326,6.11711 0.83354,6.88093 0.779,2.58423 3.84739,6.68365 13.20158,17.63763 4.10148,4.80293 5.40601,6.80851 4.70872,7.23918 -0.50882,0.31426 -0.64268,0.27866 -9.00462,-2.39489 -14.80997,-4.73516 -16.1786,-5.15846 -18.76064,-5.80239 -4.62483,-1.15336 -12.70362,-2.1958 -13.82778,-1.78422 -0.34422,0.12601 -1.44029,0.91957 -2.4357,1.76346 -0.99541,0.8439 -1.93323,1.53436 -2.08404,1.53436 -0.45807,0 -0.31034,-0.78048 0.42064,-2.22205 0.38215,-0.75368 0.69486,-1.43697 0.69486,-1.51845 0,-0.0815 -0.44021,-0.1481 -0.97822,-0.1481 -0.91172,0 -1.02261,0.0991 -1.63206,1.45823 l -0.65389,1.45823 -0.19375,-0.83328 c -0.44844,-1.92872 -0.62475,-2.12298 -1.7532,-1.93192 -2.75767,0.46689 -5.87672,2.9411 -7.07176,5.60973 -0.46831,1.0458 -0.59708,1.90185 -0.61654,4.0994 -0.0135,1.52767 0.0745,3.33298 0.19572,4.01186 0.21315,1.19394 0.20338,1.21891 -0.29981,0.76383 -0.72044,-0.65158 -0.80568,-0.60763 -1.01828,0.52497 -0.14524,0.77361 -0.03,1.29511 0.5169,2.34047 l 0.70376,1.34505 -0.74932,0.24964 c -0.68179,0.22709 -0.74148,0.35857 -0.66202,1.45836 0.0621,0.85958 0.36121,1.56721 1.03531,2.4495 1.09495,1.43312 1.15967,1.71635 0.39209,1.71635 -0.90599,0 -0.64298,0.44175 0.82268,1.38167 2.4204,1.55216 4.18174,4.93917 6.38517,12.27837 2.89746,9.65101 5.05368,13.40143 8.80662,15.31779 2.61652,1.33599 3.47136,2.67836 4.541,7.13067 0.91484,3.80796 2.17342,4.52725 6.88638,3.93556 2.80961,-0.3528 6.59723,-1.5707 12.58088,-4.04545 4.3747,-1.80928 5.91806,-2.01399 6.44648,-0.85492 0.88653,1.94452 -2.23572,4.48126 -11.72724,9.5281 -1.75795,0.93478 -3.03859,1.70273 -2.84589,1.70664 0.19271,0.009 1.4728,-0.24276 2.84465,-0.54812 z m -15.64165,-25.65887 c -4.13032,-1.53772 -6.00181,-5.87267 -4.12368,-9.55173 1.2488,-2.44629 3.43271,-3.7941 6.14774,-3.7941 3.9017,0 6.78885,2.88529 6.78885,6.78454 0,2.00044 -0.59051,3.45135 -1.96288,4.82288 -1.76439,1.76324 -4.74891,2.52067 -6.85003,1.73841 z m 5.5826,-56.18779 c 4.37429,-2.69 4.46125,-9.02486 0.16122,-11.75009 -3.3063,-2.09546 -7.59688,-1.06292 -9.68729,2.3313 -0.74286,1.20618 -0.8419,1.61464 -0.8419,3.47195 0,1.80026 0.11153,2.29461 0.77053,3.4149 1.44506,2.45675 3.67507,3.63228 6.54013,3.44759 1.31201,-0.0846 2.07976,-0.31451 3.05731,-0.91565 z"
             id="path4966"
             inkscape:connector-curvature="0" />
        </g>
      </g>
    </g>
  </g>
</svg>
